<svg width="252" height="252" viewBox="0 0 252 252" fill="none" xmlns="http://www.w3.org/2000/svg">
<g filter="url(#filter0_d_248_67)">
<circle cx="126.268" cy="106.029" r="80.4289" fill="#FAB328"/>
</g>
<circle cx="126.268" cy="106.029" r="69.7051" fill="#FBC966"/>
<ellipse cx="126.17" cy="106.029" rx="59.9561" ry="58.9812" fill="#FAB328"/>
<circle cx="126.268" cy="106.029" r="48.2574" fill="#FBC966"/>
<ellipse cx="126.352" cy="106.029" rx="38.1539" ry="37.5335" fill="#FAB328"/>
<g filter="url(#filter1_d_248_67)">
<path d="M41.4318 113H32.9091L42.5114 83.9091H53.3068L62.9091 113H54.3864L48.0227 91.9205H47.7955L41.4318 113ZM39.8409 101.523H55.8636V107.432H39.8409V101.523ZM76.9041 113H65.7109V83.9091H76.7905C79.7829 83.9091 82.3681 84.4915 84.5462 85.6562C86.7337 86.8116 88.4193 88.4782 89.603 90.6562C90.7962 92.8248 91.3928 95.4242 91.3928 98.4545C91.3928 101.485 90.8009 104.089 89.6172 106.267C88.4335 108.436 86.7573 110.102 84.5888 111.267C82.4202 112.422 79.8587 113 76.9041 113ZM73.6087 106.295H76.62C78.0594 106.295 79.2857 106.063 80.299 105.599C81.3217 105.135 82.0982 104.335 82.6286 103.199C83.1683 102.062 83.4382 100.481 83.4382 98.4545C83.4382 96.428 83.1636 94.8466 82.6143 93.7102C82.0746 92.5739 81.2791 91.7737 80.228 91.3097C79.1863 90.8456 77.9079 90.6136 76.3928 90.6136H73.6087V106.295ZM102.945 83.9091V113H95.0469V83.9091H102.945ZM117.881 113H106.688V83.9091H117.767C120.759 83.9091 123.345 84.4915 125.523 85.6562C127.71 86.8116 129.396 88.4782 130.58 90.6562C131.773 92.8248 132.369 95.4242 132.369 98.4545C132.369 101.485 131.777 104.089 130.594 106.267C129.41 108.436 127.734 110.102 125.565 111.267C123.397 112.422 120.835 113 117.881 113ZM114.585 106.295H117.597C119.036 106.295 120.262 106.063 121.276 105.599C122.298 105.135 123.075 104.335 123.605 103.199C124.145 102.062 124.415 100.481 124.415 98.4545C124.415 96.428 124.14 94.8466 123.591 93.7102C123.051 92.5739 122.256 91.7737 121.205 91.3097C120.163 90.8456 118.884 90.6136 117.369 90.6136H114.585V106.295ZM141.744 113H133.222L142.824 83.9091H153.619L163.222 113H154.699L148.335 91.9205H148.108L141.744 113ZM140.153 101.523H156.176V107.432H140.153V101.523ZM166.023 113V83.9091H178.58C180.739 83.9091 182.629 84.3021 184.248 85.0881C185.867 85.8741 187.127 87.0057 188.026 88.483C188.926 89.9602 189.376 91.7311 189.376 93.7955C189.376 95.8788 188.912 97.6354 187.984 99.0653C187.065 100.495 185.772 101.575 184.106 102.304C182.449 103.033 180.512 103.398 178.296 103.398H170.796V97.2614H176.705C177.633 97.2614 178.424 97.1477 179.077 96.9205C179.74 96.6837 180.247 96.3097 180.597 95.7983C180.957 95.2869 181.137 94.6193 181.137 93.7955C181.137 92.9621 180.957 92.285 180.597 91.7642C180.247 91.2339 179.74 90.8456 179.077 90.5994C178.424 90.3437 177.633 90.2159 176.705 90.2159H173.921V113H166.023ZM183.069 99.6477L190.342 113H181.762L174.66 99.6477H183.069ZM191.947 90.2727V83.9091H217.231V90.2727H208.481V113H200.697V90.2727H191.947Z" fill="white"/>
</g>
<path d="M78.8395 121.092H77.7315C77.6889 120.855 77.6096 120.647 77.4936 120.467C77.3776 120.287 77.2356 120.134 77.0675 120.009C76.8994 119.884 76.7112 119.789 76.5028 119.725C76.2969 119.661 76.0779 119.629 75.8459 119.629C75.4268 119.629 75.0516 119.734 74.7202 119.945C74.3911 120.156 74.1307 120.465 73.9389 120.872C73.7495 121.279 73.6548 121.776 73.6548 122.363C73.6548 122.955 73.7495 123.455 73.9389 123.862C74.1307 124.269 74.3923 124.577 74.7237 124.785C75.0552 124.994 75.428 125.098 75.8423 125.098C76.072 125.098 76.2898 125.067 76.4957 125.005C76.7041 124.942 76.8923 124.848 77.0604 124.725C77.2285 124.602 77.3705 124.451 77.4865 124.274C77.6049 124.094 77.6866 123.888 77.7315 123.656L78.8395 123.66C78.7803 124.017 78.6655 124.346 78.495 124.647C78.3269 124.945 78.1103 125.203 77.8452 125.421C77.5824 125.636 77.2817 125.803 76.9432 125.922C76.6046 126.04 76.2353 126.099 75.8352 126.099C75.2055 126.099 74.6444 125.95 74.152 125.652C73.6596 125.351 73.2713 124.921 72.9872 124.363C72.7055 123.804 72.5646 123.138 72.5646 122.363C72.5646 121.587 72.7067 120.92 72.9908 120.364C73.2749 119.805 73.6631 119.377 74.1555 119.079C74.648 118.778 75.2079 118.628 75.8352 118.628C76.2211 118.628 76.581 118.683 76.9148 118.795C77.2509 118.903 77.5528 119.064 77.8203 119.277C78.0878 119.488 78.3092 119.746 78.4844 120.052C78.6596 120.355 78.7779 120.701 78.8395 121.092ZM81.2498 118.727V126H80.1525V118.727H81.2498ZM82.8478 126V118.727H85.5112C86.0273 118.727 86.4546 118.812 86.7931 118.983C87.1317 119.151 87.385 119.379 87.5531 119.668C87.7212 119.955 87.8052 120.278 87.8052 120.638C87.8052 120.941 87.7496 121.196 87.6383 121.405C87.527 121.611 87.3779 121.776 87.1909 121.902C87.0062 122.025 86.8026 122.115 86.5801 122.172V122.243C86.8216 122.254 87.0571 122.333 87.2868 122.477C87.5188 122.619 87.7105 122.821 87.862 123.084C88.0136 123.347 88.0893 123.667 88.0893 124.043C88.0893 124.415 88.0017 124.749 87.8265 125.045C87.6537 125.338 87.3862 125.571 87.024 125.744C86.6618 125.915 86.1989 126 85.6355 126H82.8478ZM83.9451 125.059H85.5289C86.0545 125.059 86.4309 124.957 86.6582 124.753C86.8855 124.55 86.9991 124.295 86.9991 123.99C86.9991 123.76 86.9411 123.549 86.8251 123.358C86.7091 123.166 86.5434 123.013 86.3279 122.9C86.1149 122.786 85.8616 122.729 85.568 122.729H83.9451V125.059ZM83.9451 121.873H85.4153C85.6615 121.873 85.8829 121.826 86.0794 121.731C86.2782 121.637 86.4357 121.504 86.5517 121.334C86.67 121.161 86.7292 120.957 86.7292 120.723C86.7292 120.422 86.6239 120.17 86.4132 119.966C86.2025 119.763 85.8793 119.661 85.4437 119.661H83.9451V121.873ZM89.3908 126V118.727H90.4881V125.055H93.7836V126H89.3908ZM95.0353 126V118.727H99.595V119.672H96.1326V121.888H99.3571V122.829H96.1326V125.055H99.6376V126H95.0353ZM103.707 126V118.727H108.267V119.672H104.805V121.888H108.029V122.829H104.805V125.055H108.309V126H103.707ZM109.733 126V118.727H110.83V125.055H114.125V126H109.733ZM115.377 126V118.727H119.937V119.672H116.474V121.888H119.699V122.829H116.474V125.055H119.979V126H115.377ZM127.443 121.092H126.335C126.292 120.855 126.213 120.647 126.097 120.467C125.981 120.287 125.839 120.134 125.671 120.009C125.503 119.884 125.315 119.789 125.106 119.725C124.9 119.661 124.681 119.629 124.449 119.629C124.03 119.629 123.655 119.734 123.324 119.945C122.995 120.156 122.734 120.465 122.542 120.872C122.353 121.279 122.258 121.776 122.258 122.363C122.258 122.955 122.353 123.455 122.542 123.862C122.734 124.269 122.996 124.577 123.327 124.785C123.659 124.994 124.032 125.098 124.446 125.098C124.675 125.098 124.893 125.067 125.099 125.005C125.308 124.942 125.496 124.848 125.664 124.725C125.832 124.602 125.974 124.451 126.09 124.274C126.208 124.094 126.29 123.888 126.335 123.656L127.443 123.66C127.384 124.017 127.269 124.346 127.099 124.647C126.93 124.945 126.714 125.203 126.449 125.421C126.186 125.636 125.885 125.803 125.547 125.922C125.208 126.04 124.839 126.099 124.439 126.099C123.809 126.099 123.248 125.95 122.756 125.652C122.263 125.351 121.875 124.921 121.591 124.363C121.309 123.804 121.168 123.138 121.168 122.363C121.168 121.587 121.31 120.92 121.594 120.364C121.878 119.805 122.267 119.377 122.759 119.079C123.251 118.778 123.811 118.628 124.439 118.628C124.825 118.628 125.184 118.683 125.518 118.795C125.854 118.903 126.156 119.064 126.424 119.277C126.691 119.488 126.913 119.746 127.088 120.052C127.263 120.355 127.381 120.701 127.443 121.092ZM128.397 119.672V118.727H134.026V119.672H131.757V126H130.663V119.672H128.397ZM135.27 126V118.727H137.862C138.425 118.727 138.893 118.824 139.265 119.018C139.639 119.212 139.918 119.481 140.103 119.824C140.287 120.165 140.38 120.559 140.38 121.007C140.38 121.452 140.286 121.844 140.099 122.182C139.915 122.518 139.635 122.78 139.261 122.967C138.89 123.154 138.422 123.248 137.858 123.248H135.895V122.303H137.759C138.114 122.303 138.403 122.252 138.626 122.15C138.85 122.049 139.015 121.901 139.119 121.706C139.223 121.512 139.275 121.279 139.275 121.007C139.275 120.732 139.222 120.494 139.116 120.293C139.011 120.092 138.847 119.938 138.622 119.831C138.399 119.723 138.107 119.668 137.745 119.668H136.367V126H135.27ZM138.86 122.719L140.657 126H139.407L137.645 122.719H138.86ZM148.032 122.363C148.032 123.14 147.89 123.808 147.606 124.366C147.322 124.923 146.933 125.351 146.438 125.652C145.946 125.95 145.386 126.099 144.758 126.099C144.129 126.099 143.566 125.95 143.072 125.652C142.579 125.351 142.191 124.921 141.907 124.363C141.623 123.804 141.481 123.138 141.481 122.363C141.481 121.587 141.623 120.92 141.907 120.364C142.191 119.805 142.579 119.377 143.072 119.079C143.566 118.778 144.129 118.628 144.758 118.628C145.386 118.628 145.946 118.778 146.438 119.079C146.933 119.377 147.322 119.805 147.606 120.364C147.89 120.92 148.032 121.587 148.032 122.363ZM146.946 122.363C146.946 121.772 146.85 121.273 146.658 120.868C146.469 120.461 146.208 120.153 145.877 119.945C145.548 119.734 145.175 119.629 144.758 119.629C144.339 119.629 143.965 119.734 143.636 119.945C143.307 120.153 143.047 120.461 142.855 120.868C142.666 121.273 142.571 121.772 142.571 122.363C142.571 122.955 142.666 123.455 142.855 123.862C143.047 124.267 143.307 124.575 143.636 124.785C143.965 124.994 144.339 125.098 144.758 125.098C145.175 125.098 145.548 124.994 145.877 124.785C146.208 124.575 146.469 124.267 146.658 123.862C146.85 123.455 146.946 122.955 146.946 122.363ZM155.271 118.727V126H154.262L150.565 120.666H150.498V126H149.401V118.727H150.416L154.116 124.068H154.184V118.727H155.271ZM157.969 118.727V126H156.871V118.727H157.969ZM162.241 123.642H163.32L164.08 124.633L164.439 125.073L165.65 126.653H164.528L163.718 125.598L163.441 125.215L162.241 123.642ZM165.884 122.363C165.884 123.14 165.742 123.808 165.458 124.366C165.174 124.923 164.784 125.351 164.29 125.652C163.797 125.95 163.237 126.099 162.61 126.099C161.98 126.099 161.418 125.95 160.923 125.652C160.431 125.351 160.042 124.921 159.758 124.363C159.474 123.804 159.332 123.138 159.332 122.363C159.332 121.587 159.474 120.92 159.758 120.364C160.042 119.805 160.431 119.377 160.923 119.079C161.418 118.778 161.98 118.628 162.61 118.628C163.237 118.628 163.797 118.778 164.29 119.079C164.784 119.377 165.174 119.805 165.458 120.364C165.742 120.92 165.884 121.587 165.884 122.363ZM164.797 122.363C164.797 121.772 164.702 121.273 164.51 120.868C164.32 120.461 164.06 120.153 163.729 119.945C163.399 119.734 163.027 119.629 162.61 119.629C162.191 119.629 161.817 119.734 161.488 119.945C161.159 120.153 160.898 120.461 160.706 120.868C160.517 121.273 160.422 121.772 160.422 122.363C160.422 122.955 160.517 123.455 160.706 123.862C160.898 124.267 161.159 124.575 161.488 124.785C161.817 124.994 162.191 125.098 162.61 125.098C163.027 125.098 163.399 124.994 163.729 124.785C164.06 124.575 164.32 124.267 164.51 123.862C164.702 123.455 164.797 122.955 164.797 122.363ZM171.929 118.727H173.03V123.51C173.03 124.019 172.91 124.47 172.671 124.863C172.432 125.254 172.096 125.562 171.663 125.787C171.229 126.009 170.722 126.12 170.139 126.12C169.559 126.12 169.053 126.009 168.619 125.787C168.186 125.562 167.85 125.254 167.611 124.863C167.372 124.47 167.252 124.019 167.252 123.51V118.727H168.349V123.422C168.349 123.751 168.422 124.043 168.566 124.299C168.713 124.554 168.92 124.756 169.188 124.902C169.455 125.047 169.772 125.119 170.139 125.119C170.509 125.119 170.827 125.047 171.094 124.902C171.364 124.756 171.57 124.554 171.712 124.299C171.857 124.043 171.929 123.751 171.929 123.422V118.727ZM174.625 126V118.727H179.185V119.672H175.722V121.888H178.947V122.829H175.722V125.055H179.227V126H174.625Z" fill="white"/>
<defs>
<filter id="filter0_d_248_67" x="0.839111" y="0.599854" width="250.858" height="250.858" filterUnits="userSpaceOnUse" color-interpolation-filters="sRGB">
<feFlood flood-opacity="0" result="BackgroundImageFix"/>
<feColorMatrix in="SourceAlpha" type="matrix" values="0 0 0 0 0 0 0 0 0 0 0 0 0 0 0 0 0 0 127 0" result="hardAlpha"/>
<feMorphology radius="5" operator="dilate" in="SourceAlpha" result="effect1_dropShadow_248_67"/>
<feOffset dy="20"/>
<feGaussianBlur stdDeviation="20"/>
<feComposite in2="hardAlpha" operator="out"/>
<feColorMatrix type="matrix" values="0 0 0 0 0 0 0 0 0 0 0 0 0 0 0 0 0 0 0.25 0"/>
<feBlend mode="normal" in2="BackgroundImageFix" result="effect1_dropShadow_248_67"/>
<feBlend mode="normal" in="SourceGraphic" in2="effect1_dropShadow_248_67" result="shape"/>
</filter>
<filter id="filter1_d_248_67" x="28.9092" y="83.9092" width="192.322" height="37.0908" filterUnits="userSpaceOnUse" color-interpolation-filters="sRGB">
<feFlood flood-opacity="0" result="BackgroundImageFix"/>
<feColorMatrix in="SourceAlpha" type="matrix" values="0 0 0 0 0 0 0 0 0 0 0 0 0 0 0 0 0 0 127 0" result="hardAlpha"/>
<feOffset dy="4"/>
<feGaussianBlur stdDeviation="2"/>
<feComposite in2="hardAlpha" operator="out"/>
<feColorMatrix type="matrix" values="0 0 0 0 0 0 0 0 0 0 0 0 0 0 0 0 0 0 0.25 0"/>
<feBlend mode="normal" in2="BackgroundImageFix" result="effect1_dropShadow_248_67"/>
<feBlend mode="normal" in="SourceGraphic" in2="effect1_dropShadow_248_67" result="shape"/>
</filter>
</defs>
</svg>
