<svg width="500" height="517" viewBox="0 0 500 517" fill="none" xmlns="http://www.w3.org/2000/svg">
<g filter="url(#filter0_d_247_57)">
<circle cx="250.67" cy="250.072" r="201.072" fill="#FAB328"/>
</g>
<circle cx="250.67" cy="250.072" r="174.263" fill="#FBC966"/>
<ellipse cx="250.426" cy="250.072" rx="149.89" ry="147.453" fill="#FAB328"/>
<circle cx="250.67" cy="250.072" r="120.643" fill="#FBC966"/>
<ellipse cx="250.881" cy="250.072" rx="95.3848" ry="93.8338" fill="#FAB328"/>
<g filter="url(#filter1_d_247_57)">
<path d="M41.5795 266H20.2727L44.2784 193.273H71.267L95.2727 266H73.9659L58.0568 213.301H57.4886L41.5795 266ZM37.6023 237.307H77.6591V252.08H37.6023V237.307ZM130.26 266H102.277V193.273H129.976C137.457 193.273 143.92 194.729 149.365 197.641C154.834 200.529 159.048 204.696 162.007 210.141C164.99 215.562 166.482 222.061 166.482 229.636C166.482 237.212 165.002 243.723 162.043 249.168C159.084 254.589 154.893 258.756 149.472 261.668C144.051 264.556 137.647 266 130.26 266ZM122.022 249.239H129.55C133.149 249.239 136.214 248.659 138.748 247.499C141.304 246.339 143.246 244.338 144.571 241.497C145.921 238.656 146.596 234.703 146.596 229.636C146.596 224.57 145.909 220.616 144.536 217.776C143.186 214.935 141.198 212.934 138.57 211.774C135.966 210.614 132.77 210.034 128.982 210.034H122.022V249.239ZM195.362 193.273V266H175.617V193.273H195.362ZM232.702 266H204.719V193.273H232.418C239.899 193.273 246.362 194.729 251.807 197.641C257.276 200.529 261.49 204.696 264.449 210.141C267.432 215.562 268.923 222.061 268.923 229.636C268.923 237.212 267.444 243.723 264.484 249.168C261.525 254.589 257.335 258.756 251.913 261.668C246.492 264.556 240.088 266 232.702 266ZM224.463 249.239H231.991C235.59 249.239 238.656 248.659 241.189 247.499C243.746 246.339 245.687 244.338 247.013 241.497C248.362 238.656 249.037 234.703 249.037 229.636C249.037 224.57 248.35 220.616 246.977 217.776C245.628 214.935 243.639 212.934 241.011 211.774C238.407 210.614 235.211 210.034 231.423 210.034H224.463V249.239ZM292.361 266H271.054L295.06 193.273H322.048L346.054 266H324.747L308.838 213.301H308.27L292.361 266ZM288.384 237.307H328.44V252.08H288.384V237.307ZM353.059 266V193.273H384.451C389.848 193.273 394.571 194.255 398.62 196.22C402.668 198.185 405.817 201.014 408.066 204.707C410.315 208.401 411.439 212.828 411.439 217.989C411.439 223.197 410.279 227.589 407.959 231.163C405.663 234.738 402.431 237.437 398.265 239.26C394.122 241.083 389.28 241.994 383.74 241.994H364.99V226.653H379.763C382.083 226.653 384.06 226.369 385.694 225.801C387.351 225.209 388.617 224.274 389.493 222.996C390.393 221.717 390.843 220.048 390.843 217.989C390.843 215.905 390.393 214.213 389.493 212.911C388.617 211.585 387.351 210.614 385.694 209.999C384.06 209.359 382.083 209.04 379.763 209.04H372.803V266H353.059ZM395.672 232.619L413.854 266H392.405L374.65 232.619H395.672ZM417.867 209.182V193.273H481.077V209.182H459.202V266H439.742V209.182H417.867Z" fill="white"/>
</g>
<path d="M133.099 286.731H130.329C130.222 286.139 130.024 285.618 129.734 285.168C129.444 284.719 129.089 284.337 128.669 284.023C128.248 283.709 127.778 283.473 127.257 283.313C126.742 283.153 126.195 283.073 125.615 283.073C124.567 283.073 123.629 283.337 122.8 283.863C121.978 284.39 121.327 285.162 120.847 286.18C120.374 287.198 120.137 288.441 120.137 289.909C120.137 291.389 120.374 292.638 120.847 293.656C121.327 294.674 121.981 295.443 122.809 295.964C123.638 296.485 124.57 296.745 125.606 296.745C126.18 296.745 126.724 296.668 127.239 296.514C127.76 296.354 128.231 296.121 128.651 295.813C129.071 295.505 129.426 295.129 129.716 294.685C130.012 294.236 130.216 293.721 130.329 293.141L133.099 293.15C132.951 294.043 132.664 294.866 132.238 295.618C131.817 296.363 131.276 297.008 130.613 297.553C129.956 298.092 129.204 298.509 128.358 298.805C127.512 299.101 126.588 299.249 125.588 299.249C124.014 299.249 122.611 298.876 121.38 298.13C120.149 297.378 119.178 296.304 118.468 294.907C117.764 293.511 117.412 291.844 117.412 289.909C117.412 287.968 117.767 286.302 118.477 284.911C119.187 283.514 120.158 282.443 121.389 281.697C122.62 280.945 124.02 280.57 125.588 280.57C126.553 280.57 127.452 280.709 128.287 280.987C129.127 281.259 129.882 281.662 130.551 282.194C131.22 282.721 131.773 283.366 132.211 284.13C132.649 284.887 132.945 285.754 133.099 286.731ZM139.125 280.818V299H136.381V280.818H139.125ZM143.12 299V280.818H149.778C151.068 280.818 152.137 281.031 152.983 281.457C153.829 281.878 154.463 282.449 154.883 283.171C155.303 283.887 155.513 284.695 155.513 285.594C155.513 286.352 155.374 286.991 155.096 287.512C154.818 288.027 154.445 288.441 153.977 288.755C153.516 289.063 153.007 289.288 152.45 289.43V289.607C153.054 289.637 153.643 289.832 154.217 290.193C154.797 290.548 155.276 291.054 155.655 291.711C156.034 292.368 156.223 293.167 156.223 294.108C156.223 295.038 156.004 295.872 155.566 296.612C155.134 297.346 154.465 297.929 153.56 298.361C152.654 298.787 151.497 299 150.089 299H143.12ZM145.863 296.647H149.822C151.136 296.647 152.077 296.393 152.646 295.884C153.214 295.375 153.498 294.739 153.498 293.975C153.498 293.401 153.353 292.874 153.063 292.395C152.773 291.915 152.358 291.534 151.82 291.25C151.287 290.966 150.654 290.824 149.92 290.824H145.863V296.647ZM145.863 288.684H149.538C150.154 288.684 150.707 288.566 151.198 288.329C151.696 288.092 152.089 287.761 152.379 287.335C152.675 286.902 152.823 286.393 152.823 285.808C152.823 285.056 152.56 284.426 152.033 283.917C151.506 283.408 150.698 283.153 149.609 283.153H145.863V288.684ZM159.477 299V280.818H162.22V296.638H170.459V299H159.477ZM173.588 299V280.818H184.987V283.18H176.332V288.719H184.393V291.072H176.332V296.638H185.094V299H173.588ZM195.268 299V280.818H206.667V283.18H198.011V288.719H206.072V291.072H198.011V296.638H206.774V299H195.268ZM210.331 299V280.818H213.075V296.638H221.313V299H210.331ZM224.443 299V280.818H235.842V283.18H227.186V288.719H235.247V291.072H227.186V296.638H235.949V299H224.443ZM254.608 286.731H251.838C251.731 286.139 251.533 285.618 251.243 285.168C250.953 284.719 250.598 284.337 250.177 284.023C249.757 283.709 249.287 283.473 248.766 283.313C248.251 283.153 247.704 283.073 247.123 283.073C246.076 283.073 245.138 283.337 244.309 283.863C243.487 284.39 242.835 285.162 242.356 286.18C241.883 287.198 241.646 288.441 241.646 289.909C241.646 291.389 241.883 292.638 242.356 293.656C242.835 294.674 243.489 295.443 244.318 295.964C245.147 296.485 246.079 296.745 247.115 296.745C247.689 296.745 248.233 296.668 248.748 296.514C249.269 296.354 249.739 296.121 250.16 295.813C250.58 295.505 250.935 295.129 251.225 294.685C251.521 294.236 251.725 293.721 251.838 293.141L254.608 293.15C254.46 294.043 254.172 294.866 253.746 295.618C253.326 296.363 252.785 297.008 252.122 297.553C251.465 298.092 250.713 298.509 249.867 298.805C249.02 299.101 248.097 299.249 247.097 299.249C245.523 299.249 244.12 298.876 242.889 298.13C241.658 297.378 240.687 296.304 239.977 294.907C239.273 293.511 238.92 291.844 238.92 289.909C238.92 287.968 239.275 286.302 239.986 284.911C240.696 283.514 241.667 282.443 242.898 281.697C244.129 280.945 245.528 280.57 247.097 280.57C248.062 280.57 248.961 280.709 249.796 280.987C250.636 281.259 251.391 281.662 252.06 282.194C252.728 282.721 253.282 283.366 253.72 284.13C254.158 284.887 254.454 285.754 254.608 286.731ZM256.993 283.18V280.818H271.065V283.18H265.392V299H262.657V283.18H256.993ZM274.174 299V280.818H280.655C282.064 280.818 283.233 281.061 284.162 281.546C285.097 282.031 285.795 282.703 286.257 283.561C286.719 284.414 286.949 285.399 286.949 286.518C286.949 287.63 286.716 288.61 286.248 289.456C285.786 290.297 285.088 290.951 284.153 291.418C283.224 291.886 282.055 292.12 280.646 292.12H275.737V289.758H280.398C281.285 289.758 282.007 289.631 282.564 289.376C283.126 289.122 283.537 288.752 283.798 288.267C284.058 287.781 284.188 287.198 284.188 286.518C284.188 285.831 284.055 285.236 283.789 284.733C283.529 284.23 283.117 283.846 282.555 283.579C281.999 283.307 281.268 283.171 280.362 283.171H276.918V299H274.174ZM283.15 290.797L287.642 299H284.517L280.114 290.797H283.15ZM306.081 289.909C306.081 291.85 305.726 293.519 305.016 294.916C304.306 296.307 303.332 297.378 302.095 298.13C300.864 298.876 299.464 299.249 297.896 299.249C296.322 299.249 294.916 298.876 293.679 298.13C292.448 297.378 291.477 296.304 290.767 294.907C290.057 293.511 289.702 291.844 289.702 289.909C289.702 287.968 290.057 286.302 290.767 284.911C291.477 283.514 292.448 282.443 293.679 281.697C294.916 280.945 296.322 280.57 297.896 280.57C299.464 280.57 300.864 280.945 302.095 281.697C303.332 282.443 304.306 283.514 305.016 284.911C305.726 286.302 306.081 287.968 306.081 289.909ZM303.365 289.909C303.365 288.429 303.125 287.184 302.646 286.172C302.172 285.154 301.521 284.384 300.692 283.863C299.87 283.337 298.938 283.073 297.896 283.073C296.848 283.073 295.913 283.337 295.09 283.863C294.268 284.384 293.617 285.154 293.137 286.172C292.664 287.184 292.427 288.429 292.427 289.909C292.427 291.389 292.664 292.638 293.137 293.656C293.617 294.668 294.268 295.437 295.09 295.964C295.913 296.485 296.848 296.745 297.896 296.745C298.938 296.745 299.87 296.485 300.692 295.964C301.521 295.437 302.172 294.668 302.646 293.656C303.125 292.638 303.365 291.389 303.365 289.909ZM324.176 280.818V299H321.655L312.413 285.665H312.245V299H309.501V280.818H312.04L321.291 294.17H321.46V280.818H324.176ZM330.921 280.818V299H328.178V280.818H330.921ZM341.601 293.105H344.3L346.2 295.582L347.097 296.683L350.124 300.634H347.319L345.295 297.997L344.602 297.038L341.601 293.105ZM350.71 289.909C350.71 291.85 350.355 293.519 349.645 294.916C348.935 296.307 347.961 297.378 346.724 298.13C345.493 298.876 344.093 299.249 342.525 299.249C340.95 299.249 339.545 298.876 338.308 298.13C337.077 297.378 336.106 296.304 335.396 294.907C334.686 293.511 334.331 291.844 334.331 289.909C334.331 287.968 334.686 286.302 335.396 284.911C336.106 283.514 337.077 282.443 338.308 281.697C339.545 280.945 340.95 280.57 342.525 280.57C344.093 280.57 345.493 280.945 346.724 281.697C347.961 282.443 348.935 283.514 349.645 284.911C350.355 286.302 350.71 287.968 350.71 289.909ZM347.994 289.909C347.994 288.429 347.754 287.184 347.274 286.172C346.801 285.154 346.15 284.384 345.321 283.863C344.499 283.337 343.566 283.073 342.525 283.073C341.477 283.073 340.542 283.337 339.719 283.863C338.897 284.384 338.246 285.154 337.766 286.172C337.293 287.184 337.056 288.429 337.056 289.909C337.056 291.389 337.293 292.638 337.766 293.656C338.246 294.668 338.897 295.437 339.719 295.964C340.542 296.485 341.477 296.745 342.525 296.745C343.566 296.745 344.499 296.485 345.321 295.964C346.15 295.437 346.801 294.668 347.274 293.656C347.754 292.638 347.994 291.389 347.994 289.909ZM365.822 280.818H368.575V292.777C368.575 294.049 368.276 295.177 367.678 296.159C367.08 297.136 366.24 297.905 365.157 298.467C364.074 299.024 362.804 299.302 361.348 299.302C359.898 299.302 358.631 299.024 357.548 298.467C356.465 297.905 355.625 297.136 355.027 296.159C354.429 295.177 354.13 294.049 354.13 292.777V280.818H356.874V292.555C356.874 293.377 357.054 294.108 357.415 294.748C357.782 295.387 358.3 295.89 358.969 296.257C359.638 296.618 360.431 296.798 361.348 296.798C362.271 296.798 363.067 296.618 363.736 296.257C364.411 295.89 364.926 295.387 365.281 294.748C365.642 294.108 365.822 293.377 365.822 292.555V280.818ZM372.563 299V280.818H383.962V283.18H375.306V288.719H383.367V291.072H375.306V296.638H384.069V299H372.563Z" fill="white"/>
<defs>
<filter id="filter0_d_247_57" x="4.59766" y="24" width="492.145" height="492.145" filterUnits="userSpaceOnUse" color-interpolation-filters="sRGB">
<feFlood flood-opacity="0" result="BackgroundImageFix"/>
<feColorMatrix in="SourceAlpha" type="matrix" values="0 0 0 0 0 0 0 0 0 0 0 0 0 0 0 0 0 0 127 0" result="hardAlpha"/>
<feMorphology radius="5" operator="dilate" in="SourceAlpha" result="effect1_dropShadow_247_57"/>
<feOffset dy="20"/>
<feGaussianBlur stdDeviation="20"/>
<feComposite in2="hardAlpha" operator="out"/>
<feColorMatrix type="matrix" values="0 0 0 0 0 0 0 0 0 0 0 0 0 0 0 0 0 0 0.25 0"/>
<feBlend mode="normal" in2="BackgroundImageFix" result="effect1_dropShadow_247_57"/>
<feBlend mode="normal" in="SourceGraphic" in2="effect1_dropShadow_247_57" result="shape"/>
</filter>
<filter id="filter1_d_247_57" x="16.2727" y="193.273" width="468.804" height="80.7273" filterUnits="userSpaceOnUse" color-interpolation-filters="sRGB">
<feFlood flood-opacity="0" result="BackgroundImageFix"/>
<feColorMatrix in="SourceAlpha" type="matrix" values="0 0 0 0 0 0 0 0 0 0 0 0 0 0 0 0 0 0 127 0" result="hardAlpha"/>
<feOffset dy="4"/>
<feGaussianBlur stdDeviation="2"/>
<feComposite in2="hardAlpha" operator="out"/>
<feColorMatrix type="matrix" values="0 0 0 0 0 0 0 0 0 0 0 0 0 0 0 0 0 0 0.25 0"/>
<feBlend mode="normal" in2="BackgroundImageFix" result="effect1_dropShadow_247_57"/>
<feBlend mode="normal" in="SourceGraphic" in2="effect1_dropShadow_247_57" result="shape"/>
</filter>
</defs>
</svg>
