<svg width="1000" height="1000" viewBox="0 0 1000 1000" fill="none" xmlns="http://www.w3.org/2000/svg">
<g filter="url(#filter0_d_246_53)">
<circle cx="501.34" cy="500.145" r="402.145" fill="#FAB328"/>
</g>
<circle cx="501.34" cy="500.145" r="348.525" fill="#FBC966"/>
<ellipse cx="500.853" cy="500.145" rx="299.781" ry="294.906" fill="#FAB328"/>
<circle cx="501.34" cy="500.145" r="241.287" fill="#FBC966"/>
<ellipse cx="501.761" cy="500.145" rx="190.77" ry="187.668" fill="#FAB328"/>
<g filter="url(#filter1_d_246_53)">
<path d="M61.517 541H16.7727L67.1847 388.273H123.861L174.273 541H129.528L96.1193 430.332H94.9261L61.517 541ZM53.1648 480.744H137.284V511.767H53.1648V480.744ZM247.747 541H188.982V388.273H247.15C262.86 388.273 276.433 391.33 287.867 397.445C299.352 403.511 308.201 412.261 314.416 423.695C320.68 435.08 323.812 448.727 323.812 464.636C323.812 480.545 320.705 494.217 314.49 505.652C308.276 517.037 299.476 525.787 288.091 531.902C276.706 537.967 263.258 541 247.747 541ZM230.445 505.801H246.255C253.812 505.801 260.25 504.583 265.57 502.147C270.939 499.711 275.016 495.51 277.8 489.544C280.634 483.578 282.051 475.276 282.051 464.636C282.051 453.997 280.609 445.695 277.725 439.729C274.892 433.763 270.715 429.562 265.197 427.126C259.728 424.69 253.017 423.472 245.062 423.472H230.445V505.801ZM384.459 388.273V541H342.996V388.273H384.459ZM462.874 541H404.109V388.273H462.277C477.987 388.273 491.56 391.33 502.994 397.445C514.479 403.511 523.328 412.261 529.543 423.695C535.807 435.08 538.939 448.727 538.939 464.636C538.939 480.545 535.832 494.217 529.617 505.652C523.403 517.037 514.603 525.787 503.218 531.902C491.833 537.967 478.385 541 462.874 541ZM445.572 505.801H461.382C468.939 505.801 475.377 504.583 480.697 502.147C486.066 499.711 490.143 495.51 492.927 489.544C495.761 483.578 497.178 475.276 497.178 464.636C497.178 453.997 495.736 445.695 492.852 439.729C490.018 433.763 485.842 429.562 480.324 427.126C474.855 424.69 468.143 423.472 460.189 423.472H445.572V505.801ZM588.158 541H543.413L593.825 388.273H650.501L700.913 541H656.169L622.76 430.332H621.567L588.158 541ZM579.805 480.744H663.925V511.767H579.805V480.744ZM715.623 541V388.273H781.546C792.882 388.273 802.8 390.336 811.301 394.462C819.803 398.589 826.415 404.53 831.138 412.286C835.861 420.041 838.222 429.338 838.222 440.176C838.222 451.114 835.786 460.336 830.914 467.843C826.092 475.35 819.306 481.018 810.556 484.846C801.855 488.674 791.688 490.588 780.055 490.588H740.68V458.372H771.703C776.575 458.372 780.726 457.776 784.156 456.582C787.637 455.339 790.296 453.376 792.136 450.691C794.025 448.006 794.97 444.501 794.97 440.176C794.97 435.801 794.025 432.246 792.136 429.512C790.296 426.728 787.637 424.69 784.156 423.397C780.726 422.055 776.575 421.384 771.703 421.384H757.086V541H715.623ZM805.112 470.901L843.294 541H798.251L760.964 470.901H805.112ZM851.72 421.682V388.273H984.462V421.682H938.524V541H897.658V421.682H851.72Z" fill="white"/>
</g>
<path d="M264.197 574.462H258.658C258.445 573.278 258.048 572.236 257.468 571.337C256.888 570.437 256.178 569.674 255.337 569.046C254.497 568.419 253.556 567.945 252.514 567.626C251.484 567.306 250.389 567.146 249.229 567.146C247.134 567.146 245.258 567.673 243.601 568.727C241.955 569.78 240.653 571.325 239.695 573.361C238.748 575.397 238.274 577.883 238.274 580.818C238.274 583.777 238.748 586.275 239.695 588.311C240.653 590.347 241.961 591.886 243.619 592.928C245.276 593.969 247.14 594.49 249.212 594.49C250.36 594.49 251.449 594.336 252.479 594.028C253.52 593.709 254.461 593.241 255.302 592.626C256.142 592.01 256.853 591.259 257.433 590.371C258.024 589.471 258.433 588.441 258.658 587.281L264.197 587.299C263.902 589.086 263.327 590.732 262.475 592.235C261.635 593.727 260.552 595.017 259.226 596.106C257.912 597.183 256.409 598.018 254.716 598.609C253.023 599.201 251.177 599.497 249.176 599.497C246.027 599.497 243.222 598.751 240.76 597.26C238.298 595.757 236.357 593.608 234.936 590.815C233.527 588.021 232.823 584.689 232.823 580.818C232.823 576.936 233.533 573.603 234.954 570.822C236.374 568.028 238.316 565.886 240.778 564.394C243.24 562.891 246.039 562.139 249.176 562.139C251.106 562.139 252.905 562.417 254.574 562.974C256.255 563.518 257.764 564.323 259.102 565.388C260.439 566.442 261.546 567.732 262.422 569.259C263.298 570.774 263.89 572.509 264.197 574.462ZM276.249 562.636V599H270.763V562.636H276.249ZM284.239 599V562.636H297.556C300.136 562.636 302.273 563.062 303.966 563.915C305.658 564.755 306.925 565.897 307.765 567.342C308.606 568.774 309.026 570.39 309.026 572.189C309.026 573.704 308.748 574.982 308.192 576.024C307.635 577.054 306.89 577.883 305.954 578.51C305.031 579.125 304.013 579.575 302.9 579.859V580.214C304.108 580.274 305.286 580.664 306.434 581.386C307.594 582.097 308.553 583.109 309.31 584.423C310.068 585.737 310.447 587.335 310.447 589.217C310.447 591.075 310.009 592.744 309.133 594.224C308.269 595.692 306.931 596.857 305.12 597.722C303.309 598.574 300.995 599 298.177 599H284.239ZM289.726 594.295H297.645C300.273 594.295 302.155 593.786 303.291 592.768C304.427 591.75 304.996 590.477 304.996 588.95C304.996 587.802 304.706 586.749 304.126 585.79C303.546 584.831 302.717 584.067 301.64 583.499C300.574 582.931 299.308 582.647 297.84 582.647H289.726V594.295ZM289.726 578.368H297.077C298.308 578.368 299.414 578.131 300.397 577.658C301.391 577.184 302.178 576.521 302.758 575.669C303.35 574.805 303.646 573.787 303.646 572.615C303.646 571.112 303.119 569.851 302.066 568.833C301.012 567.815 299.397 567.306 297.219 567.306H289.726V578.368ZM316.954 599V562.636H322.441V594.277H338.918V599H316.954ZM345.177 599V562.636H367.975V567.359H350.663V578.439H366.785V583.144H350.663V594.277H368.188V599H345.177ZM388.536 599V562.636H411.334V567.359H394.023V578.439H410.145V583.144H394.023V594.277H411.547V599H388.536ZM418.663 599V562.636H424.15V594.277H440.627V599H418.663ZM446.886 599V562.636H469.684V567.359H452.372V578.439H468.494V583.144H452.372V594.277H469.897V599H446.886ZM507.215 574.462H501.675C501.462 573.278 501.066 572.236 500.486 571.337C499.906 570.437 499.195 569.674 498.355 569.046C497.515 568.419 496.573 567.945 495.532 567.626C494.502 567.306 493.407 567.146 492.247 567.146C490.152 567.146 488.276 567.673 486.618 568.727C484.973 569.78 483.671 571.325 482.712 573.361C481.765 575.397 481.292 577.883 481.292 580.818C481.292 583.777 481.765 586.275 482.712 588.311C483.671 590.347 484.979 591.886 486.636 592.928C488.293 593.969 490.158 594.49 492.229 594.49C493.377 594.49 494.466 594.336 495.496 594.028C496.538 593.709 497.479 593.241 498.319 592.626C499.16 592.01 499.87 591.259 500.45 590.371C501.042 589.471 501.45 588.441 501.675 587.281L507.215 587.299C506.919 589.086 506.345 590.732 505.493 592.235C504.652 593.727 503.569 595.017 502.243 596.106C500.93 597.183 499.426 598.018 497.733 598.609C496.041 599.201 494.194 599.497 492.194 599.497C489.045 599.497 486.24 598.751 483.778 597.26C481.315 595.757 479.374 593.608 477.954 590.815C476.545 588.021 475.841 584.689 475.841 580.818C475.841 576.936 476.551 573.603 477.971 570.822C479.392 568.028 481.333 565.886 483.795 564.394C486.257 562.891 489.057 562.139 492.194 562.139C494.123 562.139 495.922 562.417 497.591 562.974C499.272 563.518 500.782 564.323 502.119 565.388C503.457 566.442 504.564 567.732 505.439 569.259C506.315 570.774 506.907 572.509 507.215 574.462ZM511.987 567.359V562.636H540.13V567.359H528.784V599H523.315V567.359H511.987ZM546.349 599V562.636H559.31C562.127 562.636 564.465 563.122 566.324 564.092C568.194 565.063 569.591 566.406 570.514 568.123C571.437 569.827 571.899 571.798 571.899 574.036C571.899 576.261 571.431 578.22 570.496 579.913C569.573 581.594 568.176 582.902 566.306 583.837C564.448 584.772 562.11 585.239 559.292 585.239H549.474V580.516H558.795C560.571 580.516 562.015 580.262 563.128 579.753C564.252 579.244 565.075 578.504 565.596 577.533C566.117 576.563 566.377 575.397 566.377 574.036C566.377 572.662 566.111 571.473 565.578 570.467C565.057 569.46 564.234 568.691 563.11 568.158C561.997 567.614 560.535 567.342 558.724 567.342H551.835V599H546.349ZM564.3 582.594L573.284 599H567.034L558.227 582.594H564.3ZM610.162 580.818C610.162 584.701 609.452 588.039 608.032 590.832C606.611 593.614 604.664 595.757 602.19 597.26C599.728 598.751 596.929 599.497 593.792 599.497C590.643 599.497 587.832 598.751 585.358 597.26C582.896 595.757 580.954 593.608 579.534 590.815C578.113 588.021 577.403 584.689 577.403 580.818C577.403 576.936 578.113 573.603 579.534 570.822C580.954 568.028 582.896 565.886 585.358 564.394C587.832 562.891 590.643 562.139 593.792 562.139C596.929 562.139 599.728 562.891 602.19 564.394C604.664 565.886 606.611 568.028 608.032 570.822C609.452 573.603 610.162 576.936 610.162 580.818ZM604.729 580.818C604.729 577.859 604.25 575.367 603.291 573.343C602.344 571.307 601.042 569.768 599.385 568.727C597.739 567.673 595.875 567.146 593.792 567.146C591.697 567.146 589.826 567.673 588.181 568.727C586.536 569.768 585.233 571.307 584.275 573.343C583.328 575.367 582.854 577.859 582.854 580.818C582.854 583.777 583.328 586.275 584.275 588.311C585.233 590.335 586.536 591.874 588.181 592.928C589.826 593.969 591.697 594.49 593.792 594.49C595.875 594.49 597.739 593.969 599.385 592.928C601.042 591.874 602.344 590.335 603.291 588.311C604.25 586.275 604.729 583.777 604.729 580.818ZM646.353 562.636V599H641.31L622.827 572.331H622.489V599H617.003V562.636H622.081L640.582 589.341H640.92V562.636H646.353ZM659.843 562.636V599H654.356V562.636H659.843ZM681.203 587.21H686.601L690.4 592.164L692.194 594.366L698.248 602.267H692.638L688.589 596.994L687.204 595.076L681.203 587.21ZM699.42 580.818C699.42 584.701 698.71 588.039 697.29 590.832C695.869 593.614 693.922 595.757 691.448 597.26C688.986 598.751 686.186 599.497 683.05 599.497C679.901 599.497 677.09 598.751 674.616 597.26C672.153 595.757 670.212 593.608 668.792 590.815C667.371 588.021 666.661 584.689 666.661 580.818C666.661 576.936 667.371 573.603 668.792 570.822C670.212 568.028 672.153 565.886 674.616 564.394C677.09 562.891 679.901 562.139 683.05 562.139C686.186 562.139 688.986 562.891 691.448 564.394C693.922 565.886 695.869 568.028 697.29 570.822C698.71 573.603 699.42 576.936 699.42 580.818ZM693.987 580.818C693.987 577.859 693.508 575.367 692.549 573.343C691.602 571.307 690.3 569.768 688.643 568.727C686.997 567.673 685.133 567.146 683.05 567.146C680.954 567.146 679.084 567.673 677.439 568.727C675.793 569.768 674.491 571.307 673.532 573.343C672.586 575.367 672.112 577.859 672.112 580.818C672.112 583.777 672.586 586.275 673.532 588.311C674.491 590.335 675.793 591.874 677.439 592.928C679.084 593.969 680.954 594.49 683.05 594.49C685.133 594.49 686.997 593.969 688.643 592.928C690.3 591.874 691.602 590.335 692.549 588.311C693.508 586.275 693.987 583.777 693.987 580.818ZM729.645 562.636H735.149V586.553C735.149 589.098 734.551 591.353 733.356 593.318C732.16 595.271 730.479 596.81 728.313 597.935C726.147 599.047 723.608 599.604 720.696 599.604C717.796 599.604 715.263 599.047 713.097 597.935C710.93 596.81 709.25 595.271 708.054 593.318C706.858 591.353 706.261 589.098 706.261 586.553V562.636H711.747V586.109C711.747 587.755 712.108 589.217 712.83 590.495C713.564 591.773 714.6 592.78 715.938 593.513C717.275 594.236 718.861 594.597 720.696 594.597C722.543 594.597 724.135 594.236 725.472 593.513C726.822 592.78 727.852 591.773 728.562 590.495C729.284 589.217 729.645 587.755 729.645 586.109V562.636ZM743.126 599V562.636H765.924V567.359H748.612V578.439H764.735V583.144H748.612V594.277H766.137V599H743.126Z" fill="white"/>
<defs>
<filter id="filter0_d_246_53" x="54.1956" y="73" width="894.29" height="894.29" filterUnits="userSpaceOnUse" color-interpolation-filters="sRGB">
<feFlood flood-opacity="0" result="BackgroundImageFix"/>
<feColorMatrix in="SourceAlpha" type="matrix" values="0 0 0 0 0 0 0 0 0 0 0 0 0 0 0 0 0 0 127 0" result="hardAlpha"/>
<feMorphology radius="5" operator="dilate" in="SourceAlpha" result="effect1_dropShadow_246_53"/>
<feOffset dy="20"/>
<feGaussianBlur stdDeviation="20"/>
<feComposite in2="hardAlpha" operator="out"/>
<feColorMatrix type="matrix" values="0 0 0 0 0 0 0 0 0 0 0 0 0 0 0 0 0 0 0.25 0"/>
<feBlend mode="normal" in2="BackgroundImageFix" result="effect1_dropShadow_246_53"/>
<feBlend mode="normal" in="SourceGraphic" in2="effect1_dropShadow_246_53" result="shape"/>
</filter>
<filter id="filter1_d_246_53" x="12.7727" y="388.273" width="975.689" height="160.727" filterUnits="userSpaceOnUse" color-interpolation-filters="sRGB">
<feFlood flood-opacity="0" result="BackgroundImageFix"/>
<feColorMatrix in="SourceAlpha" type="matrix" values="0 0 0 0 0 0 0 0 0 0 0 0 0 0 0 0 0 0 127 0" result="hardAlpha"/>
<feOffset dy="4"/>
<feGaussianBlur stdDeviation="2"/>
<feComposite in2="hardAlpha" operator="out"/>
<feColorMatrix type="matrix" values="0 0 0 0 0 0 0 0 0 0 0 0 0 0 0 0 0 0 0.25 0"/>
<feBlend mode="normal" in2="BackgroundImageFix" result="effect1_dropShadow_246_53"/>
<feBlend mode="normal" in="SourceGraphic" in2="effect1_dropShadow_246_53" result="shape"/>
</filter>
</defs>
</svg>
